<?xml version="1.0" encoding="utf-8"?>
<!-- Svg Vector Icons : http://www.onlinewebfonts.com/icon -->
<!DOCTYPE svg PUBLIC "-//W3C//DTD SVG 1.1//EN" "http://www.w3.org/Graphics/SVG/1.1/DTD/svg11.dtd">
<svg version="1.1" xmlns="http://www.w3.org/2000/svg" xmlns:xlink="http://www.w3.org/1999/xlink" x="0px" y="0px" viewBox="0 0 1000 1000" enable-background="new 0 0 1000 1000" xml:space="preserve">
<metadata> Svg Vector Icons : http://www.onlinewebfonts.com/icon </metadata>
<g><g><g><path d="M476.1,168.3c21.5-0.7,39.6-9,54.1-25c14.6-16,21.5-34.7,20.8-56.2c-0.7-21.5-8.7-39.9-23.9-55.2C511.8,16.6,493.4,9.4,471.9,10c-21.5,0.7-39.6,9-54.1,25c-14.6,16-21.9,34.7-21.9,56.2s8,39.9,23.9,55.2C435.8,161.7,454.5,169,476.1,168.3z"/><path d="M739.5,431.7l-114.5-62.5l-93.7-149.9c-18-22.2-40.3-33.3-66.6-33.3c-18,0-35.4,7.6-52.1,22.9L271,352.6c-4.2,5.6-6.9,11.8-8.3,18.7l-18.7,160.3v4.2c0,9.7,3.5,18,10.4,25c6.9,6.9,15.3,10.4,25,10.4c9.7,0,17.7-3.5,23.9-10.4c6.2-6.9,10.1-14.6,11.5-22.9l14.6-137.4l50-50l-45.8,383.1l-81.2,181.2c-2.8,8.3-4.2,15.9-4.2,22.9c0,15.2,5.2,28.1,15.6,38.5c10.4,10.4,23.3,14.9,38.5,13.5c20.8,0,36.1-9.7,45.8-29.2l87.5-195.7c0-1.4,0.7-3.8,2.1-7.3c1.4-3.5,2.8-6.6,4.2-9.4c1.4-2.8,2.1-5.6,2.1-8.3l10.4-93.7l89.5,308.2c9.7,25,27.1,36.8,52.1,35.4c13.9,0,26-5.2,36.4-15.6c10.4-10.4,15.6-23.3,15.6-38.5c0-1.4-0.3-3.1-1-5.2c-0.7-2.1-1-3.8-1-5.2L520.8,498.3l14.6-139.5l35.4,56.2c2.8,4.2,6.2,7.6,10.4,10.4l122.9,68.7c8.3,2.8,13.9,4.2,16.7,4.2c9.7,0,18-3.8,25-11.5c6.9-7.6,10.4-16.3,10.4-26C756.1,448.4,750.6,438.6,739.5,431.7z"/></g></g><g></g><g></g><g></g><g></g><g></g><g></g><g></g><g></g><g></g><g></g><g></g><g></g><g></g><g></g><g></g></g>
</svg>
