<?xml version="1.0" standalone="no"?>
<!DOCTYPE svg PUBLIC "-//W3C//DTD SVG 20010904//EN"
 "http://www.w3.org/TR/2001/REC-SVG-20010904/DTD/svg10.dtd">
<svg version="1.0" xmlns="http://www.w3.org/2000/svg"
 width="542.000000pt" height="460.000000pt" viewBox="0 0 542.000000 460.000000"
 preserveAspectRatio="xMidYMid meet">

<g transform="translate(0.000000,460.000000) scale(0.100000,-0.100000)"
fill="#000000" stroke="none">
<path d="M1960 4402 c-196 -65 -393 -288 -468 -532 -42 -137 -56 -253 -56
-480 0 -197 15 -395 34 -445 7 -19 8 -18 14 5 79 336 132 495 227 680 32 63
80 144 107 178 53 70 140 135 205 153 112 30 243 -39 472 -251 174 -161 259
-210 361 -210 86 0 145 43 169 124 44 146 -13 292 -175 456 -138 139 -309 243
-502 306 -112 36 -304 44 -388 16z"/>
<path d="M3665 4236 c-202 -49 -354 -291 -318 -509 6 -35 24 -91 39 -123 34
-71 137 -177 214 -219 53 -29 60 -30 180 -30 122 0 128 1 192 33 84 41 166
129 213 227 62 129 62 246 -1 373 -41 84 -126 178 -193 211 -89 46 -227 61
-326 37z"/>
<path d="M5221 3368 c-45 -115 -130 -272 -195 -359 -172 -228 -468 -459 -588
-459 -53 0 -107 30 -157 86 -58 67 -93 131 -145 271 -83 225 -136 302 -229
338 -66 25 -111 14 -163 -40 -85 -88 -114 -250 -75 -405 43 -171 163 -372 304
-509 133 -130 241 -179 367 -167 227 21 507 215 680 471 107 159 206 398 229
555 15 102 19 272 6 277 -6 1 -21 -25 -34 -59z"/>
<path d="M1795 2641 c-118 -31 -160 -105 -153 -265 5 -117 35 -180 136 -288
41 -42 72 -84 70 -92 -7 -32 -244 -297 -748 -837 -141 -151 -327 -353 -414
-449 -88 -96 -226 -244 -307 -327 -159 -164 -206 -220 -195 -230 15 -15 175
82 876 532 118 76 325 208 460 293 314 197 460 299 643 447 82 66 173 140 202
164 l55 44 56 -34 c71 -44 160 -123 180 -161 14 -27 13 -31 -6 -63 -63 -102
-389 -308 -875 -552 -288 -144 -317 -161 -309 -175 10 -16 256 -2 399 22 238
40 711 180 881 259 237 111 442 329 461 490 18 154 -166 413 -535 754 -258
238 -395 334 -601 421 -112 48 -211 64 -276 47z"/>
</g>
</svg>
