<?xml version="1.0" encoding="utf-8"?>
<!-- Svg Vector Icons : http://www.onlinewebfonts.com/icon -->
<!DOCTYPE svg PUBLIC "-//W3C//DTD SVG 1.1//EN" "http://www.w3.org/Graphics/SVG/1.1/DTD/svg11.dtd">
<svg version="1.1" xmlns="http://www.w3.org/2000/svg" xmlns:xlink="http://www.w3.org/1999/xlink" x="0px" y="0px" viewBox="0 0 1000 1000" enable-background="new 0 0 1000 1000" xml:space="preserve">
<metadata> Svg Vector Icons : http://www.onlinewebfonts.com/icon </metadata>
<g><g><g><path d="M387.2,506.9c57.8,7.1,111.7,25.5,161.7,48.6c24.3,11.3,50.2,26.2,70.5,37.7c20.4,12,41,22.8,61.9,33.3L554.6,376l-26.8-47.1l-94.5-165.6c-13.3-23.4-43-31.5-66.5-18.2c-23.5,13.5-31.6,43.2-18.1,66.6L453.2,395l-26.8,23.7l-159.7,91.1l-3.7,2C304.3,503.2,346.8,501.9,387.2,506.9z"/><circle cx="731.8" cy="405.4" r="105.2"/><path d="M983,618.7c-14.9,49.6-38.5,95.6-72,119.4c-32.7,23.7-69.9,25.2-110.9,17c-40.9-8.5-83.3-26.1-124.8-47.1c-21-10.6-41.7-21.4-62.2-33.4c-20.3-11.6-46.3-26.4-70.5-37.7c-50-23.1-103.9-41.6-161.7-48.7c-57.4-7.1-119.2-2.5-174.9,19.7c-55.9,21.8-103.2,59.9-136,104.9C37.9,758.1,15.6,808.6,10,861.3c62.6-83,142.5-142.4,225.4-156.3c82.6-15.2,168.7,9.7,252.1,48.9c21.8,9.9,40.1,19.9,64,32.7c24.1,12.1,48.7,23.8,74.1,33.7c50.9,19.6,105.6,35.7,165.9,36.1c29.9,0.1,61.7-4.1,91.7-16.5c30.2-12.1,57.2-33.5,74.8-59.2C992.5,728.1,996,669.4,983,618.7z"/></g></g><g></g><g></g><g></g><g></g><g></g><g></g><g></g><g></g><g></g><g></g><g></g><g></g><g></g><g></g><g></g></g>
</svg>