<?xml version="1.0" encoding="utf-8"?>
<!-- Svg Vector Icons : http://www.onlinewebfonts.com/icon -->
<!DOCTYPE svg PUBLIC "-//W3C//DTD SVG 1.1//EN" "http://www.w3.org/Graphics/SVG/1.1/DTD/svg11.dtd">
<svg version="1.1" xmlns="http://www.w3.org/2000/svg" xmlns:xlink="http://www.w3.org/1999/xlink" x="0px" y="0px" viewBox="0 0 1000 1000" enable-background="new 0 0 1000 1000" xml:space="preserve">
<metadata> Svg Vector Icons : http://www.onlinewebfonts.com/icon </metadata>
<g><path d="M157.9,908.8c9.1-22,18.8-43.7,27.1-66C269.3,617.9,353,392.7,483.6,192C550.5,89.2,645.1,34.1,759.3,14.4c13.5-2.3,31-7.9,40.5-1.5c17.4,11.7,37.2,29.1,42,48.2c2.7,10.6-20.2,36.4-36,42.9c-32.5,13.3-68.9,15.5-102.2,27.2c-66.4,23.4-111,63.1-149.3,127.4c32.9,41.3,69.1,81.1,98.8,125.9c22.6,34.1,40.8,73,53.9,112.4c12,36.2-2.7,63.5-41.8,71.1c-63.3,12.2-126.5,25.4-196.3,39.5c32.7,75,64.6,148.3,96.6,221.6c9.7,22.2,20.5,44,29.2,66.7c14.5,37.5-0.8,64.3-31.5,81c-32.4,17.7-56.7,3.6-71.6-29.3c-39.2-86.6-77.6-173.7-121.2-271.7c-32.5,89.1-60,170.2-92.1,249.2c-10.5,25.8-30.5,61.3-50.4,64.8c-20.7,3.6-46.4-26.3-70-41.5C157.9,935.1,157.9,922,157.9,908.8z M567.7,423.2c-17.2,25.4-31.2,45.9-51.3,75.6c35-7.5,58.1-12.4,86.6-18.4C591.6,461.7,582.7,447.4,567.7,423.2z"/><path d="M773.5,259.1c-0.2,46-36.5,83-80.8,82.2c-42.9-0.7-75.7-35.3-76.5-80.7c-0.9-47,33.6-85.1,77.4-85.5C736.7,174.9,773.7,213.7,773.5,259.1z"/></g>
</svg>